<?xml version="1.0" standalone="no"?>
<!DOCTYPE svg PUBLIC "-//W3C//DTD SVG 20010904//EN"
 "http://www.w3.org/TR/2001/REC-SVG-20010904/DTD/svg10.dtd">
<svg version="1.0" xmlns="http://www.w3.org/2000/svg"
 width="500.000000pt" height="500.000000pt" viewBox="0 0 500.000000 500.000000"
 preserveAspectRatio="xMidYMid meet">
<metadata>
Created by potrace 1.14, written by Peter Selinger 2001-2017
</metadata>
<g transform="translate(0.000000,500.000000) scale(0.100000,-0.100000)"
fill="#000000" stroke="none">
<path d="M2588 4685 c-2 -2 -47 -5 -99 -6 -85 -1 -303 -22 -368 -34 -14 -3
-46 -8 -71 -11 -24 -3 -47 -7 -51 -9 -3 -2 -21 -7 -40 -10 -112 -20 -325 -93
-440 -151 -90 -45 -144 -85 -198 -148 -66 -77 -75 -100 -74 -197 2 -92 15
-136 57 -192 23 -30 25 -42 23 -108 -2 -61 -7 -80 -27 -107 -22 -29 -25 -45
-26 -115 l-1 -81 -164 -32 c-285 -57 -454 -123 -587 -227 -112 -88 -147 -160
-139 -290 4 -83 27 -148 61 -176 22 -19 11 -160 -16 -215 -31 -60 -26 -184 8
-253 22 -43 26 -61 21 -105 -2 -30 -15 -74 -27 -99 -34 -64 -31 -194 5 -255
32 -54 32 -103 1 -169 -24 -49 -25 -58 -22 -236 2 -209 7 -227 79 -296 23 -22
69 -55 102 -73 33 -18 65 -36 70 -40 16 -12 174 -71 245 -91 103 -31 339 -77
430 -84 25 -2 63 -7 85 -10 94 -14 547 -7 598 10 6 2 41 6 76 10 36 3 67 7 70
9 3 2 28 7 55 10 105 14 246 49 341 85 45 17 200 95 207 105 11 16 69 11 173
-17 55 -14 113 -28 130 -30 23 -3 31 -10 37 -35 7 -25 3 -38 -23 -76 -17 -25
-35 -46 -40 -46 -14 0 -15 0 -82 -19 -34 -10 -81 -28 -103 -39 -50 -26 -110
-90 -118 -128 -11 -50 1 -113 27 -147 31 -41 121 -90 202 -111 130 -33 343
-42 457 -21 144 28 217 56 260 101 35 38 48 74 48 137 0 62 -27 108 -86 149
-46 32 -161 77 -205 80 -22 2 -35 10 -44 28 -8 15 -20 32 -29 39 -18 15 -15
82 5 93 8 5 63 28 123 53 139 58 237 120 334 212 19 18 19 18 41 -25 32 -62
90 -101 146 -97 11 1 30 2 41 3 12 1 36 15 53 31 26 24 31 36 31 75 0 38 -5
51 -31 76 -18 16 -40 30 -50 30 -25 0 -49 11 -49 21 0 17 134 95 195 113 162
49 335 144 403 221 63 72 102 176 108 285 6 130 -38 232 -128 293 -129 88
-294 59 -408 -71 -56 -63 -70 -82 -70 -90 0 -12 -41 -35 -95 -55 -92 -33 -86
-35 -80 14 3 24 15 64 27 89 24 52 41 176 29 218 -5 15 -20 50 -35 78 -33 62
-34 127 -2 220 17 51 22 82 18 119 -6 57 -7 98 -2 210 3 74 1 85 -26 134 -24
45 -29 66 -29 120 0 56 5 73 29 109 26 38 29 51 30 125 0 65 -5 92 -23 132
-14 31 -25 78 -28 122 -5 68 -3 76 25 120 16 27 32 61 36 76 11 45 8 180 -3
211 -15 39 -124 150 -191 195 -47 32 -149 79 -255 119 -194 73 -513 130 -764
138 -96 3 -178 7 -181 9 -4 3 -9 2 -12 0z m1916 -2435 c56 -21 95 -83 101
-160 3 -43 -24 -138 -51 -183 -63 -101 -156 -162 -383 -253 -50 -20 -94 -40
-97 -45 -3 -5 -9 -9 -14 -9 -11 0 -1 29 49 135 32 68 64 147 66 165 0 3 4 11
8 18 5 7 6 25 2 40 -4 20 4 47 30 99 78 156 190 231 289 193z"/>
</g>
</svg>
